<svg xmlns="http://www.w3.org/2000/svg" viewBox="0 0 690.66 117.17"><defs><style>.cls-1{fill:#3b7383;opacity:0.33;}.cls-2{fill:#a185bc;}.cls-3{fill:#917ab1;}.cls-4{fill:#673c90;}.cls-5{fill:#b05ea0;}</style></defs><title>LOGOS OCT 2018</title><g id="Layer_1" data-name="Layer 1"><path class="cls-1" d="M85.65,37.72a40.12,40.12,0,0,0-6.32.51A39.74,39.74,0,0,1,46.05,78.84a39.69,39.69,0,0,0,33.21,37.71,41,41,0,0,0,6.49.53,39.68,39.68,0,0,0,6.39-78.83,41,41,0,0,0-6.49-.53"/><path class="cls-2" d="M39.63,0a39.68,39.68,0,0,0,.1,79.35,39,39,0,0,0,6.32-.51A39.69,39.69,0,0,1,79.33,38.23,39.7,39.7,0,0,0,39.63,0"/><path class="cls-3" d="M79.33,38.23A39.69,39.69,0,0,0,46.05,78.84,39.74,39.74,0,0,0,79.33,38.23"/><path class="cls-4" d="M106.25,76.77a5.31,5.31,0,0,0,0-.68c0-.19,0-.38,0-.57s-.06-.5-.1-.74a8,8,0,0,0-.15-.83c0-.15-.05-.3-.09-.45s-.07-.33-.11-.49l-.09-.32a5.62,5.62,0,0,0-.15-.55c0-.19-.11-.37-.17-.55l-.08-.24c-.08-.22-.15-.44-.23-.65l-.08-.2c-.1-.25-.2-.49-.31-.73l0-.07c-.09-.2-.18-.41-.29-.61l-.14-.3-.27-.52L103.7,68q-.12-.22-.27-.45a4.11,4.11,0,0,0-.24-.39c-.08-.14-.17-.28-.26-.42l-.17-.23c-.14-.22-.29-.43-.45-.64s-.33-.43-.5-.65l-.12-.14c-.14-.17-.29-.35-.45-.52l-.15-.17c-.17-.18-.33-.36-.51-.54l-.06-.06c-.19-.2-.39-.39-.6-.59l-.64-.58-.08-.06c-.21-.18-.43-.36-.65-.52s-.47-.36-.71-.53l-.06,0-.7-.47-.78-.47c-.26-.15-.53-.3-.81-.44l-.82-.4c-.38-.18-.77-.34-1.17-.5L93,59c-.26-.1-.52-.18-.79-.26s-.62-.19-1-.27L91,58.4c-.27-.07-.56-.13-.85-.18a9.3,9.3,0,0,0-.92-.16h-.09A39.66,39.66,0,0,1,64.49,44.5l0,0a39.87,39.87,0,0,1-6.62-10.91l-.21-.5a19.94,19.94,0,0,0-33.75-4.81c-.19.26-.39.51-.59.76a20,20,0,0,0-2.7,18.78l0,0c.13.29.25.58.36.88l0,0A19.9,19.9,0,0,0,36.45,60.61h0a39.57,39.57,0,0,1,8.76,2.28c.62.23,1.22.48,1.81.75h0c.57.26,1.14.53,1.69.81h0l.06,0h0A40,40,0,0,1,67.62,84.65l0,.06c.14.33.27.66.4,1s.31.69.49,1,.29.56.44.84l.15.26,0,0c.14.25.3.5.46.74s.37.56.57.83l.25.34,0,0c.18.24.37.47.56.7s.48.57.73.84l0,0c.25.27.51.53.78.79s.55.51.85.76.58.48.88.72l.58.42c.33.23.67.46,1,.66s.54.33.81.48l.62.33,1,.47,1,.41c.35.13.71.26,1.07.37l.67.19.53.14.38.09.62.13.92.16h.09l.93.11a20,20,0,0,0,21.53-17A20.34,20.34,0,0,0,106.25,76.77Z"/><path class="cls-5" d="M82.62,97.58a20.4,20.4,0,1,1,23.44-16.81A20.4,20.4,0,0,1,82.62,97.58Z"/><path class="cls-4" d="M118.52,49.7a19.81,19.81,0,1,1,22.76-16.33A19.82,19.82,0,0,1,118.52,49.7Z"/><path class="cls-4" d="M171.16,53.3c-1.46.11-2.78.17-3.95.17q-6,0-8.75-1.43c-1.82-.95-3.06-2.78-3.7-5.5s-1-7.1-1-13.14.33-10.36,1-13.08,1.88-4.56,3.7-5.53,4.73-1.45,8.75-1.45a34.57,34.57,0,0,1,3.92.23c1.4.15,2.58.32,3.52.51v2.79a49.29,49.29,0,0,0-6.7-.51q-5.23,0-7.33,1.05t-2.79,4.39a66.22,66.22,0,0,0-.68,11.6,66.14,66.14,0,0,0,.68,11.6q.67,3.34,2.79,4.39t7.33,1a46.13,46.13,0,0,0,6.93-.51v2.91C173.86,53,172.62,53.18,171.16,53.3Z"/><path class="cls-4" d="M203.47,39.56H185.4a32.66,32.66,0,0,0,.54,7.15,4.35,4.35,0,0,0,2.3,3.08,13.79,13.79,0,0,0,5.79.88c1.29,0,2.72-.06,4.3-.2a40.41,40.41,0,0,0,4.17-.54v2.74a30.19,30.19,0,0,1-4,.57c-1.71.15-3.38.23-5,.23q-5.07,0-7.39-1.29a6.37,6.37,0,0,1-3.1-4.3,41.41,41.41,0,0,1-.77-9.35,49.16,49.16,0,0,1,.63-9.29,6.33,6.33,0,0,1,2.95-4.36q2.34-1.39,7.62-1.4c3.14,0,5.42.45,6.82,1.34a6.2,6.2,0,0,1,2.67,4.28,54.16,54.16,0,0,1,.57,9.32ZM188,27.05a4,4,0,0,0-2.1,2.9,34,34,0,0,0-.51,7h14.94v-.85a25.89,25.89,0,0,0-.59-6.53,4,4,0,0,0-2-2.68,11.37,11.37,0,0,0-4.43-.65A13,13,0,0,0,188,27.05Z"/><path class="cls-4" d="M230.47,35.68a26.07,26.07,0,0,0-.51-6.15A3.58,3.58,0,0,0,228.05,27a12,12,0,0,0-4.57-.63q-3.58,0-5.21,1.4a6,6,0,0,0-2,3.65,39.52,39.52,0,0,0-.4,6.52V53h-3.18V23.94h2.72l.23,4.33h.23a6.63,6.63,0,0,1,2.76-3.53q1.95-1.26,6-1.26a11.92,11.92,0,0,1,5.8,1.12A5.52,5.52,0,0,1,233,28a26.49,26.49,0,0,1,.65,6.67V53h-3.18Z"/><path class="cls-4" d="M245.87,53V26.73H240.7V23.94h5.17V15.5h3.18v8.44h6.08v2.79h-6.08V53Z"/><path class="cls-4" d="M262.29,23.94H265l.23,5.76h.23a7.4,7.4,0,0,1,3-4.88,10.84,10.84,0,0,1,5.71-1.34v3.25a9.26,9.26,0,0,0-5.37,1.34A7,7,0,0,0,266.21,32a25.7,25.7,0,0,0-.73,6.81V53h-3.19Z"/><path class="cls-4" d="M301.17,39.56H283.1a32.66,32.66,0,0,0,.54,7.15,4.38,4.38,0,0,0,2.3,3.08,13.79,13.79,0,0,0,5.79.88c1.29,0,2.72-.06,4.3-.2a40.41,40.41,0,0,0,4.17-.54v2.74a30.19,30.19,0,0,1-4,.57c-1.71.15-3.38.23-5,.23q-5.07,0-7.39-1.29a6.37,6.37,0,0,1-3.1-4.3,41.41,41.41,0,0,1-.77-9.35,49.16,49.16,0,0,1,.63-9.29,6.33,6.33,0,0,1,2.95-4.36q2.34-1.39,7.62-1.4c3.14,0,5.42.45,6.82,1.34a6.2,6.2,0,0,1,2.67,4.28,54.16,54.16,0,0,1,.57,9.32ZM285.71,27.05a4,4,0,0,0-2.1,2.9,34,34,0,0,0-.51,7H298v-.85a25.89,25.89,0,0,0-.59-6.53,4,4,0,0,0-2-2.68,11.37,11.37,0,0,0-4.43-.65A13,13,0,0,0,285.71,27.05Z"/><path class="cls-4" d="M325.38,26.73h-5.17V23.94h5.17V18.35a10.26,10.26,0,0,1,1-5.07,4.52,4.52,0,0,1,2.95-2.14,26.42,26.42,0,0,1,5.8-.48v2.56a16.51,16.51,0,0,0-4.09.38,2.93,2.93,0,0,0-1.91,1.31,5.91,5.91,0,0,0-.54,2.87v6.16h6.54v2.79h-6.54V53h-3.18Z"/><path class="cls-4" d="M344.54,52.3a5.6,5.6,0,0,1-2.9-4.11,51.55,51.55,0,0,1-.63-9.66,52.16,52.16,0,0,1,.63-9.72,5.69,5.69,0,0,1,2.9-4.13q2.26-1.2,7.5-1.2t7.53,1.2a5.86,5.86,0,0,1,2.9,4.13,50.86,50.86,0,0,1,.65,9.72,50.27,50.27,0,0,1-.65,9.66,5.76,5.76,0,0,1-2.9,4.11q-2.25,1.17-7.53,1.17T344.54,52.3Zm13.07-2.48a4,4,0,0,0,2-3.11,60.67,60.67,0,0,0,.37-8.18,61.42,61.42,0,0,0-.37-8.21,4.13,4.13,0,0,0-2-3.16q-1.59-.89-5.57-.88c-2.66,0-4.5.29-5.54.88a4.12,4.12,0,0,0-1.94,3.14,61.15,61.15,0,0,0-.37,8.23,60.67,60.67,0,0,0,.37,8.18,4,4,0,0,0,1.94,3.11c1,.57,2.88.85,5.54.85S356.55,50.39,357.61,49.82Z"/><path class="cls-4" d="M372.33,23.94h2.73l.22,5.76h.23a7.43,7.43,0,0,1,3-4.88,10.84,10.84,0,0,1,5.71-1.34v3.25a9.26,9.26,0,0,0-5.37,1.34A7,7,0,0,0,376.25,32a25.65,25.65,0,0,0-.74,6.81V53h-3.18Z"/><path class="cls-4" d="M417.06,36.37V31.46h12.05V52.33a51.59,51.59,0,0,1-5.52.82c-2.08.21-3.94.32-5.57.32-4.2,0-7.32-.53-9.35-1.57a8.54,8.54,0,0,1-4.17-5.7q-1.14-4.14-1.14-12.8,0-8.49,1.16-12.65A8.86,8.86,0,0,1,408.76,15q3.06-1.62,9.32-1.62a49.86,49.86,0,0,1,5.88.37,43.23,43.23,0,0,1,5,.83v4.67c-1.29-.19-2.77-.37-4.46-.54s-3.06-.26-4.12-.26a25.83,25.83,0,0,0-7.5.74c-1.41.5-2.37,1.74-2.9,3.74s-.8,5.5-.8,10.51a57.71,57.71,0,0,0,.6,10q.6,3,2.41,4.13t5.92,1.08a34.73,34.73,0,0,0,5.34-.39V36.37Z"/><path class="cls-4" d="M459.29,40.3H442.58a26,26,0,0,0,.42,5.64,3.21,3.21,0,0,0,2,2.28,15.49,15.49,0,0,0,5.26.63,74.64,74.64,0,0,0,8.07-.57v4.33a27,27,0,0,1-4.21.63c-1.74.15-3.43.23-5.05.23-3.6,0-6.25-.47-7.93-1.4a6.74,6.74,0,0,1-3.33-4.42,38.65,38.65,0,0,1-.79-9.12,40.65,40.65,0,0,1,.74-9A6.93,6.93,0,0,1,440.93,25c1.63-1,4.18-1.49,7.67-1.49s5.81.49,7.3,1.46a6.41,6.41,0,0,1,2.82,4.39,52.68,52.68,0,0,1,.57,9.15Zm-14.7-11.57A3.33,3.33,0,0,0,443,31a27.49,27.49,0,0,0-.45,5.41h11.36v-.28a22.23,22.23,0,0,0-.45-5.3,3.23,3.23,0,0,0-1.56-2.2,8.28,8.28,0,0,0-3.44-.54A8.78,8.78,0,0,0,444.59,28.73Z"/><path class="cls-4" d="M483.9,36.82a30.47,30.47,0,0,0-.37-5.67,3,3,0,0,0-1.4-2.19,8.37,8.37,0,0,0-3.52-.52,6,6,0,0,0-3.86,1,4.71,4.71,0,0,0-1.6,3,35,35,0,0,0-.34,5.53V53H467.3V23.94h5l.23,3.88h.4a6.58,6.58,0,0,1,2.84-3.22A10.5,10.5,0,0,1,481,23.48a10,10,0,0,1,5.37,1.17,5.77,5.77,0,0,1,2.41,3.51,26.16,26.16,0,0,1,.63,6.5V53H483.9Z"/><path class="cls-4" d="M501,52.21A6,6,0,0,1,498,48a47.31,47.31,0,0,1-.68-9.54A47.91,47.91,0,0,1,498,28.9a5.94,5.94,0,0,1,3-4.19q2.36-1.23,7.82-1.23c3.63,0,6.24.41,7.81,1.23a5.92,5.92,0,0,1,3,4.19,47.16,47.16,0,0,1,.68,9.58A46.57,46.57,0,0,1,519.7,48a6,6,0,0,1-3,4.19c-1.57.84-4.18,1.26-7.81,1.26S502.6,53.05,501,52.21Zm12.08-4.1a3.36,3.36,0,0,0,1.48-2.62,57.24,57.24,0,0,0,.28-7,57,57,0,0,0-.28-7,3.33,3.33,0,0,0-1.48-2.6,9.44,9.44,0,0,0-4.26-.68,9.27,9.27,0,0,0-4.21.68,3.33,3.33,0,0,0-1.48,2.6,57,57,0,0,0-.28,7,57.24,57.24,0,0,0,.28,7,3.36,3.36,0,0,0,1.48,2.62,9.27,9.27,0,0,0,4.21.68A9.44,9.44,0,0,0,513.11,48.11Z"/><path class="cls-4" d="M559.6,36.82a35.16,35.16,0,0,0-.31-5.67A2.94,2.94,0,0,0,558,29a7.09,7.09,0,0,0-3.21-.52,5.41,5.41,0,0,0-3.53,1,4.72,4.72,0,0,0-1.47,2.91,34.39,34.39,0,0,0-.35,5.64V53H544V36.82a35.18,35.18,0,0,0-.31-5.7A3,3,0,0,0,542.44,29a6.91,6.91,0,0,0-3.19-.52,5.26,5.26,0,0,0-3.52,1,4.89,4.89,0,0,0-1.48,2.94,34.12,34.12,0,0,0-.34,5.58V53H528.4V23.94h5l.23,3.88H534a6.46,6.46,0,0,1,2.7-3.22,12,12,0,0,1,9.92-.09A5.55,5.55,0,0,1,549,27.82h.34q1.83-4.34,7.85-4.34a9,9,0,0,1,5,1.17,5.8,5.8,0,0,1,2.33,3.54,27.51,27.51,0,0,1,.59,6.47V53H559.6Z"/><path class="cls-4" d="M573.92,16.3V10.66h5.74V16.3ZM574,53V23.94h5.51V53Z"/><path class="cls-4" d="M602.09,53.24a34.89,34.89,0,0,1-3.84.23c-3.22,0-5.6-.52-7.13-1.54a7,7,0,0,1-3-4.56,44.93,44.93,0,0,1-.65-8.89,39.36,39.36,0,0,1,.76-8.87A7.45,7.45,0,0,1,591.32,25c1.51-1,3.78-1.51,6.82-1.51a33.77,33.77,0,0,1,3.8.23,23.59,23.59,0,0,1,3.3.57v4.39a32.49,32.49,0,0,0-5.74-.51,8.46,8.46,0,0,0-4.23.8,4.08,4.08,0,0,0-1.77,2.87,37.38,37.38,0,0,0-.42,6.65,35.64,35.64,0,0,0,.45,6.72,4,4,0,0,0,1.79,2.85,9.21,9.21,0,0,0,4.29.74,32.52,32.52,0,0,0,5.86-.51v4.39A25.86,25.86,0,0,1,602.09,53.24Z"/><path class="cls-4" d="M154.25,66.38H169c2.95,0,5.2.52,6.73,1.54a7.23,7.23,0,0,1,3,4.19,26.69,26.69,0,0,1,.74,6.93,25.78,25.78,0,0,1-.74,6.75,7.42,7.42,0,0,1-3,4.25c-1.53,1.06-3.8,1.6-6.79,1.6H160.1v14h-5.85ZM167,86.62a10.5,10.5,0,0,0,4.43-.71,3.37,3.37,0,0,0,1.82-2.23,20,20,0,0,0,.4-4.64,20.13,20.13,0,0,0-.4-4.65,3.38,3.38,0,0,0-1.79-2.22,10.15,10.15,0,0,0-4.41-.71h-7V86.62Z"/><path class="cls-4" d="M187.13,104.12c-1.31-1.29-2-3.5-2-6.61a14.67,14.67,0,0,1,.74-5.25,4.9,4.9,0,0,1,2.5-2.73,11.53,11.53,0,0,1,4.94-.86c1.94,0,4.72.08,8.36.23V87.36a13.77,13.77,0,0,0-.51-4.5,2.75,2.75,0,0,0-1.94-1.71,19.55,19.55,0,0,0-4.77-.4c-1.06,0-2.39.06-4,.17s-2.82.25-3.69.4V76.87a51.51,51.51,0,0,1,9.43-.8,17.51,17.51,0,0,1,7.05,1.09,5.66,5.66,0,0,1,3.12,3.45,22.29,22.29,0,0,1,.8,6.86V105.6h-5l-.23-3.76h-.34a5.88,5.88,0,0,1-3.27,3.36,13.9,13.9,0,0,1-5.08.86C190.49,106.06,188.44,105.41,187.13,104.12ZM198.87,101a3.53,3.53,0,0,0,1.93-1.71,12.44,12.44,0,0,0,.91-5.35V92.55h-7a8.11,8.11,0,0,0-2.62.31,2,2,0,0,0-1.19,1.25,9.24,9.24,0,0,0-.34,2.94,7.78,7.78,0,0,0,.37,2.79,2.15,2.15,0,0,0,1.42,1.26,11.73,11.73,0,0,0,3.27.34A9.51,9.51,0,0,0,198.87,101Z"/><path class="cls-4" d="M218.13,105.6V81.2h-4.94V76.53h4.94V68.09h5.52v8.44h5.85V81.2h-5.85v24.4Z"/><path class="cls-4" d="M252.41,89.41a30.47,30.47,0,0,0-.37-5.67,3,3,0,0,0-1.4-2.19,8.37,8.37,0,0,0-3.52-.52,6.09,6.09,0,0,0-3.87,1,4.74,4.74,0,0,0-1.59,3,35,35,0,0,0-.34,5.53v15h-5.51V63.25h5.51V80.06h.34a6.24,6.24,0,0,1,2.79-2.93,10.75,10.75,0,0,1,5.06-1,9.93,9.93,0,0,1,5.34,1.17,5.73,5.73,0,0,1,2.44,3.51,25.79,25.79,0,0,1,.63,6.44V105.6h-5.51Z"/><path class="cls-4" d="M269.54,104.8a6,6,0,0,1-3-4.19,46.57,46.57,0,0,1-.68-9.54,47.16,47.16,0,0,1,.68-9.58,5.94,5.94,0,0,1,3-4.19q2.35-1.23,7.82-1.23c3.63,0,6.24.41,7.81,1.23a5.92,5.92,0,0,1,3,4.19,47.16,47.16,0,0,1,.68,9.58,46.57,46.57,0,0,1-.68,9.54,6,6,0,0,1-3,4.19c-1.57.84-4.18,1.26-7.81,1.26S271.11,105.64,269.54,104.8Zm12.08-4.1a3.38,3.38,0,0,0,1.48-2.62,57.24,57.24,0,0,0,.28-7,57,57,0,0,0-.28-7,3.36,3.36,0,0,0-1.48-2.6,9.44,9.44,0,0,0-4.26-.68,9.27,9.27,0,0,0-4.21.68,3.33,3.33,0,0,0-1.48,2.6,57,57,0,0,0-.28,7,57.24,57.24,0,0,0,.28,7,3.36,3.36,0,0,0,1.48,2.62,9.27,9.27,0,0,0,4.21.68A9.44,9.44,0,0,0,281.62,100.7Z"/><path class="cls-4" d="M297.53,116.6v-4.33q4.77.23,7.62.23a14.38,14.38,0,0,0,5.34-.72,3.61,3.61,0,0,0,2.13-2.56,26.48,26.48,0,0,0,.49-6V102h-.35a5.49,5.49,0,0,1-2.84,3,11.61,11.61,0,0,1-4.83.89,10.29,10.29,0,0,1-5.6-1.28,7.25,7.25,0,0,1-2.78-4.45,37.81,37.81,0,0,1-.83-9,37.52,37.52,0,0,1,.86-9.15,7.34,7.34,0,0,1,2.84-4.53,10,10,0,0,1,5.57-1.32,11.56,11.56,0,0,1,4.77.92A5.92,5.92,0,0,1,313,80.41h.34l.23-3.88h5.06v25.25a40.23,40.23,0,0,1-.8,9.24,7.11,7.11,0,0,1-3.41,4.64q-2.61,1.52-8.07,1.51A56.68,56.68,0,0,1,297.53,116.6Zm13.05-16.33a4,4,0,0,0,1.73-2.08,10.49,10.49,0,0,0,.62-2.79,42.46,42.46,0,0,0,.18-4.39c0-1.71-.05-3.11-.15-4.19a9.91,9.91,0,0,0-.59-2.77,4.17,4.17,0,0,0-1.77-2.3,6.35,6.35,0,0,0-3.29-.72,8.89,8.89,0,0,0-3.95.63,3.48,3.48,0,0,0-1.54,2.62,42.78,42.78,0,0,0-.37,6.73,38.56,38.56,0,0,0,.4,6.64,3.64,3.64,0,0,0,1.57,2.62,8.35,8.35,0,0,0,3.89.66A6.71,6.71,0,0,0,310.58,100.27Z"/><path class="cls-4" d="M348.8,92.89H332.09a26,26,0,0,0,.42,5.64,3.21,3.21,0,0,0,2,2.28,15.53,15.53,0,0,0,5.26.63,74.48,74.48,0,0,0,8.07-.57v4.33a27.06,27.06,0,0,1-4.2.63c-1.75.15-3.43.23-5.06.23q-5.4,0-7.93-1.4a6.74,6.74,0,0,1-3.33-4.42,38.65,38.65,0,0,1-.79-9.12,40.65,40.65,0,0,1,.74-9,6.93,6.93,0,0,1,3.18-4.53q2.44-1.49,7.67-1.49c3.38,0,5.81.49,7.31,1.46a6.44,6.44,0,0,1,2.81,4.39,52.68,52.68,0,0,1,.57,9.15ZM334.11,81.32a3.31,3.31,0,0,0-1.57,2.28,28.31,28.31,0,0,0-.45,5.41h11.37v-.28a22.11,22.11,0,0,0-.46-5.3,3.2,3.2,0,0,0-1.56-2.2,8.28,8.28,0,0,0-3.44-.54A8.7,8.7,0,0,0,334.11,81.32Z"/><path class="cls-4" d="M373.41,89.41a29.6,29.6,0,0,0-.37-5.67,3,3,0,0,0-1.39-2.19,8.45,8.45,0,0,0-3.53-.52,6,6,0,0,0-3.86,1,4.65,4.65,0,0,0-1.59,3,33.84,33.84,0,0,0-.34,5.53v15h-5.52V76.53h5l.23,3.88h.4a6.58,6.58,0,0,1,2.84-3.22,10.39,10.39,0,0,1,5.23-1.12,9.91,9.91,0,0,1,5.37,1.17,5.82,5.82,0,0,1,2.42,3.51,26.73,26.73,0,0,1,.62,6.5V105.6h-5.51Z"/><path class="cls-4" d="M401.2,105.26v-4.9q6.14.61,10.23.62a23.35,23.35,0,0,0,4.12-.28,5.71,5.71,0,0,0,2.42-1,3.29,3.29,0,0,0,1-1.85,16,16,0,0,0,.25-3.22A17.62,17.62,0,0,0,419,91a2.28,2.28,0,0,0-1.11-1.54,8.82,8.82,0,0,0-2.9-.77l-7.61-1A8.56,8.56,0,0,1,402.85,86a6.48,6.48,0,0,1-2.08-3.42,22.35,22.35,0,0,1-.54-5.41,13.88,13.88,0,0,1,1.45-7,7.47,7.47,0,0,1,4.15-3.36,22.11,22.11,0,0,1,7-.91c1.94,0,3.85.08,5.75.26a37.55,37.55,0,0,1,4.88.71v4.79A55.18,55.18,0,0,0,414.1,71a24.49,24.49,0,0,0-4.26.29,5.32,5.32,0,0,0-2.39,1A3.07,3.07,0,0,0,406.34,74a13.29,13.29,0,0,0-.25,2.94,15,15,0,0,0,.25,3.25,2.19,2.19,0,0,0,1,1.45,7,7,0,0,0,2.5.66l7.73,1a13,13,0,0,1,4.21,1.17,5.41,5.41,0,0,1,2.44,2.88,18.45,18.45,0,0,1,.91,6.73,16.74,16.74,0,0,1-1.34,7.49,7,7,0,0,1-3.86,3.54,20,20,0,0,1-6.74.94A89,89,0,0,1,401.2,105.26Z"/><path class="cls-4" d="M449.79,101.72h-.34a6.08,6.08,0,0,1-2.81,3.25,11.05,11.05,0,0,1-5.31,1.09,9.83,9.83,0,0,1-5.32-1.17,5.78,5.78,0,0,1-2.41-3.54,26.16,26.16,0,0,1-.63-6.47V76.53h5.51V92.72a30.47,30.47,0,0,0,.37,5.67,3,3,0,0,0,1.4,2.19,8.37,8.37,0,0,0,3.52.52,6,6,0,0,0,3.86-1,4.68,4.68,0,0,0,1.6-2.93,34.92,34.92,0,0,0,.34-5.56v-15h5.51V105.6H450Z"/><path class="cls-4" d="M464.06,76.53h5l.23,5.24h.4a7.11,7.11,0,0,1,3-4.47,10.68,10.68,0,0,1,5.49-1.23V81.6a10.07,10.07,0,0,0-5.23,1.14,6,6,0,0,0-2.62,3.51,22.61,22.61,0,0,0-.74,6.47V105.6h-5.51Z"/><path class="cls-4" d="M490.37,105.6l-8.75-29.07h5.69l6.48,23.2h.45l6.42-23.2h5.63l-8.75,29.07Z"/><path class="cls-4" d="M533.17,92.89H516.46a25.78,25.78,0,0,0,.43,5.64,3.18,3.18,0,0,0,2,2.28,15.45,15.45,0,0,0,5.26.63,74.81,74.81,0,0,0,8.07-.57v4.33a27.22,27.22,0,0,1-4.21.63c-1.74.15-3.43.23-5.06.23q-5.4,0-7.93-1.4a6.76,6.76,0,0,1-3.32-4.42,38.54,38.54,0,0,1-.8-9.12,41.27,41.27,0,0,1,.74-9,6.94,6.94,0,0,1,3.19-4.53q2.43-1.49,7.67-1.49,5.06,0,7.3,1.46a6.41,6.41,0,0,1,2.82,4.39,54,54,0,0,1,.56,9.15ZM518.48,81.32a3.27,3.27,0,0,0-1.56,2.28,27.3,27.3,0,0,0-.46,5.41h11.37v-.28a22.23,22.23,0,0,0-.45-5.3,3.24,3.24,0,0,0-1.57-2.2,8.25,8.25,0,0,0-3.44-.54A8.76,8.76,0,0,0,518.48,81.32Z"/><path class="cls-4" d="M541.07,68.89V63.25h5.74v5.64Zm.12,36.71V76.53h5.51V105.6Z"/><path class="cls-4" d="M555.68,105.6V63.25h5.51V105.6Z"/><path class="cls-4" d="M570.17,105.6V63.25h5.52V105.6Z"/><path class="cls-4" d="M585,104.12c-1.3-1.29-2-3.5-2-6.61a14.9,14.9,0,0,1,.74-5.25,4.93,4.93,0,0,1,2.5-2.73,11.61,11.61,0,0,1,5-.86c1.93,0,4.72.08,8.35.23V87.36a13.77,13.77,0,0,0-.51-4.5,2.71,2.71,0,0,0-1.93-1.71,19.65,19.65,0,0,0-4.78-.4c-1.06,0-2.38.06-4,.17s-2.83.25-3.7.4V76.87a51.62,51.62,0,0,1,9.44-.8,17.49,17.49,0,0,1,7,1.09,5.65,5.65,0,0,1,3.13,3.45,22.61,22.61,0,0,1,.8,6.86V105.6h-5l-.22-3.76h-.34a5.88,5.88,0,0,1-3.27,3.36,14,14,0,0,1-5.09.86Q587,106.06,585,104.12ZM596.77,101a3.5,3.5,0,0,0,1.93-1.71,12.29,12.29,0,0,0,.91-5.35V92.55h-7a8.08,8.08,0,0,0-2.61.31,2,2,0,0,0-1.2,1.25,9.54,9.54,0,0,0-.34,2.94,8,8,0,0,0,.37,2.79,2.17,2.17,0,0,0,1.42,1.26,11.73,11.73,0,0,0,3.27.34A9.43,9.43,0,0,0,596.77,101Z"/><path class="cls-4" d="M630.7,89.41a29.6,29.6,0,0,0-.37-5.67,3,3,0,0,0-1.39-2.19,8.4,8.4,0,0,0-3.52-.52,6,6,0,0,0-3.87,1A4.74,4.74,0,0,0,620,85a33.84,33.84,0,0,0-.34,5.53v15h-5.51V76.53h5l.22,3.88h.4a6.64,6.64,0,0,1,2.85-3.22,10.35,10.35,0,0,1,5.22-1.12,9.91,9.91,0,0,1,5.37,1.17,5.78,5.78,0,0,1,2.42,3.51,26.16,26.16,0,0,1,.63,6.5V105.6H630.7Z"/><path class="cls-4" d="M658.69,105.83a34.57,34.57,0,0,1-3.83.23c-3.22,0-5.6-.52-7.14-1.54a7,7,0,0,1-3-4.56,44.77,44.77,0,0,1-.66-8.89,39.26,39.26,0,0,1,.77-8.87,7.44,7.44,0,0,1,3-4.62c1.52-1,3.79-1.51,6.82-1.51a34,34,0,0,1,3.81.23,23.59,23.59,0,0,1,3.3.57v4.39a32.49,32.49,0,0,0-5.74-.51,8.47,8.47,0,0,0-4.24.8,4.07,4.07,0,0,0-1.76,2.87,37.15,37.15,0,0,0-.43,6.65,35.44,35.44,0,0,0,.46,6.72,4,4,0,0,0,1.79,2.85,9.21,9.21,0,0,0,4.29.74,32.52,32.52,0,0,0,5.86-.51v4.39A25.75,25.75,0,0,1,658.69,105.83Z"/><path class="cls-4" d="M690.66,92.89H674a25.78,25.78,0,0,0,.43,5.64,3.18,3.18,0,0,0,2,2.28,15.45,15.45,0,0,0,5.26.63,74.81,74.81,0,0,0,8.07-.57v4.33a27.22,27.22,0,0,1-4.21.63c-1.74.15-3.43.23-5.06.23q-5.4,0-7.93-1.4a6.76,6.76,0,0,1-3.32-4.42,38.54,38.54,0,0,1-.8-9.12,41.27,41.27,0,0,1,.74-9,7,7,0,0,1,3.19-4.53q2.43-1.49,7.67-1.49c3.37,0,5.81.49,7.3,1.46a6.41,6.41,0,0,1,2.82,4.39,54,54,0,0,1,.56,9.15ZM676,81.32a3.27,3.27,0,0,0-1.56,2.28A27.3,27.3,0,0,0,674,89h11.37v-.28a22.23,22.23,0,0,0-.45-5.3,3.24,3.24,0,0,0-1.57-2.2,8.22,8.22,0,0,0-3.43-.54A8.78,8.78,0,0,0,676,81.32Z"/></g></svg>