<svg width="291" height="93" viewBox="0 0 291 93" fill="none" xmlns="http://www.w3.org/2000/svg">
<g clip-path="url(#clip0)">
<g opacity="0.78">
<path opacity="0.78" d="M86 24.16H98.74C104.033 24.16 107.797 24.7367 110.03 25.89C111.158 26.4891 112.131 27.3436 112.871 28.3853C113.61 29.427 114.096 30.6272 114.29 31.89C114.877 34.7233 115.173 39.49 115.18 46.19C115.187 52.89 114.89 57.6567 114.29 60.49C114.096 61.7528 113.61 62.953 112.871 63.9947C112.131 65.0364 111.158 65.8909 110.03 66.49C107.79 67.6433 104.027 68.22 98.74 68.22H86V24.16ZM98.29 62.5C101.87 62.5 104.29 62.2433 105.55 61.73C106.81 61.2167 107.627 59.9267 108 57.86C108.484 53.9866 108.675 50.0821 108.57 46.18C108.695 42.2976 108.505 38.4115 108 34.56C107.6 32.5 106.76 31.19 105.51 30.66C104.26 30.13 101.85 29.86 98.31 29.86H92.61V62.5H98.29Z" fill="#683D91"/>
<path opacity="0.78" d="M123.85 66.53C122.383 65.0767 121.65 62.6033 121.65 59.11C121.567 57.1126 121.849 55.1168 122.48 53.22C122.979 51.8687 123.988 50.7666 125.29 50.15C127.052 49.4145 128.953 49.0732 130.86 49.15C133.04 49.15 136.17 49.23 140.27 49.4V47.72C140.361 46.0128 140.165 44.3023 139.69 42.66C139.513 42.187 139.222 41.7646 138.844 41.4299C138.466 41.0952 138.011 40.8583 137.52 40.74C135.751 40.373 133.945 40.2219 132.14 40.29C130.95 40.29 129.45 40.36 127.66 40.48C125.87 40.6 124.48 40.76 123.5 40.93V35.93C127.008 35.3031 130.567 35.0018 134.13 35.03C137.67 35.03 140.313 35.4367 142.06 36.25C142.887 36.6097 143.628 37.1406 144.235 37.8076C144.842 38.4747 145.3 39.2628 145.58 40.12C146.275 42.6317 146.579 45.2357 146.48 47.84V68.2H140.85L140.59 64H140.21C139.888 64.8487 139.396 65.6221 138.763 66.2724C138.13 66.9227 137.37 67.4358 136.53 67.78C134.698 68.4655 132.755 68.8046 130.8 68.78C127.64 68.71 125.33 68 123.85 66.53ZM137.07 63C138.012 62.6558 138.79 61.9706 139.25 61.08C140.022 59.1784 140.364 57.1293 140.25 55.08V53.54H132.4C131.388 53.4924 130.374 53.6106 129.4 53.89C129.085 54.0092 128.801 54.1978 128.569 54.442C128.337 54.6861 128.163 54.9794 128.06 55.3C127.755 56.3721 127.627 57.4867 127.68 58.6C127.627 59.6595 127.766 60.72 128.09 61.73C128.229 62.0729 128.446 62.3787 128.724 62.6234C129.002 62.868 129.332 63.0449 129.69 63.14C130.892 63.4442 132.131 63.5722 133.37 63.52C134.624 63.5603 135.876 63.3844 137.07 63Z" fill="#683D91"/>
<path opacity="0.78" d="M157.49 68.2V40.81H151.92V35.56H157.49V26.08H163.69V35.56H170.29V40.81H163.69V68.2H157.49Z" fill="#683D91"/>
<path opacity="0.78" d="M175.89 66.53C174.41 65.08 173.68 62.61 173.68 59.11C173.597 57.1126 173.879 55.1168 174.51 53.22C175.01 51.8657 176.023 50.7628 177.33 50.15C179.088 49.4131 180.986 49.0718 182.89 49.15C185.07 49.15 188.207 49.2333 192.3 49.4V47.72C192.388 46.0135 192.196 44.3041 191.73 42.66C191.549 42.1876 191.256 41.7662 190.876 41.4318C190.497 41.0974 190.041 40.86 189.55 40.74C187.781 40.373 185.975 40.2219 184.17 40.29C182.98 40.29 181.49 40.36 179.69 40.48C177.89 40.6 176.51 40.76 175.53 40.93V35.93C179.038 35.3031 182.597 35.0018 186.16 35.03C189.7 35.03 192.343 35.4367 194.09 36.25C194.918 36.608 195.66 37.1384 196.267 37.8057C196.874 38.473 197.332 39.2619 197.61 40.12C198.305 42.6317 198.609 45.2357 198.51 47.84V68.2H192.88L192.62 64H192.24C191.918 64.8487 191.426 65.6221 190.793 66.2724C190.16 66.9227 189.4 67.4358 188.56 67.78C186.729 68.4664 184.786 68.8055 182.83 68.78C179.67 68.7333 177.357 67.9833 175.89 66.53ZM189.1 63C190.042 62.6558 190.82 61.9706 191.28 61.08C192.052 59.1784 192.394 57.1293 192.28 55.08V53.54H184.41C183.418 53.4984 182.425 53.6166 181.47 53.89C181.154 54.0086 180.868 54.1969 180.634 54.441C180.4 54.6851 180.225 54.9787 180.12 55.3C179.82 56.3731 179.692 57.4869 179.74 58.6C179.691 59.6593 179.83 60.719 180.15 61.73C180.289 62.0729 180.506 62.3787 180.784 62.6234C181.062 62.868 181.392 63.0449 181.75 63.14C182.952 63.4442 184.191 63.5722 185.43 63.52C186.674 63.5577 187.915 63.3818 189.1 63Z" fill="#683D91"/>
<path opacity="0.78" d="M206.44 52.71V47.14H221V52.71H206.44Z" fill="#683D91"/>
<path opacity="0.78" d="M231.53 40.81H226V35.56H231.57V31.27C231.57 27.9367 231.967 25.5467 232.76 24.1C233.143 23.3864 233.68 22.7668 234.332 22.286C234.984 21.8053 235.735 21.4753 236.53 21.32C239.285 20.8267 242.083 20.6222 244.88 20.71V25.44C243.326 25.3935 241.772 25.5041 240.24 25.77C239.837 25.812 239.449 25.9444 239.104 26.1573C238.76 26.3703 238.468 26.6584 238.25 27C237.845 27.9948 237.671 29.0683 237.74 30.14V35.52H244.84V40.77H237.74V68.2H231.53V40.81ZM250.73 68.2V20.64H256.94V68.2H250.73Z" fill="#683D91"/>
<path opacity="0.78" d="M268.81 67.3C267.925 66.8214 267.159 66.1509 266.567 65.3376C265.976 64.5244 265.573 63.589 265.39 62.6C264.769 59.0622 264.511 55.4702 264.62 51.88C264.512 48.2765 264.77 44.6714 265.39 41.12C265.568 40.129 265.968 39.1913 266.56 38.3772C267.153 37.5631 267.922 36.894 268.81 36.42C270.58 35.5 273.52 35.04 277.61 35.04C281.7 35.04 284.61 35.5 286.41 36.42C287.298 36.8952 288.068 37.5645 288.662 38.3782C289.256 39.192 289.658 40.1291 289.84 41.12C290.455 44.6719 290.71 48.2769 290.6 51.88C290.711 55.4699 290.456 59.0617 289.84 62.6C289.653 63.5889 289.248 64.5237 288.655 65.3366C288.062 66.1496 287.295 66.8203 286.41 67.3C284.637 68.24 281.703 68.71 277.61 68.71C273.52 68.71 270.58 68.24 268.81 67.3ZM282.41 62.69C282.898 62.3638 283.303 61.9281 283.593 61.4177C283.883 60.9073 284.05 60.3362 284.08 59.75C284.347 57.1356 284.454 54.5074 284.4 51.88C284.455 49.2393 284.348 46.5976 284.08 43.97C284.047 43.3884 283.88 42.8224 283.59 42.3172C283.3 41.812 282.896 41.3815 282.41 41.06C280.892 40.4317 279.248 40.168 277.61 40.29C275.995 40.1716 274.374 40.4354 272.88 41.06C272.39 41.3845 271.984 41.8197 271.694 42.3305C271.404 42.8413 271.238 43.4132 271.21 44C270.942 46.6276 270.835 49.2693 270.89 51.91C270.836 54.5374 270.943 57.1656 271.21 59.78C271.24 60.3662 271.407 60.9373 271.697 61.4477C271.987 61.9581 272.392 62.3938 272.88 62.72C274.374 63.3446 275.995 63.6084 277.61 63.49C279.251 63.6025 280.895 63.3285 282.41 62.69Z" fill="#683D91"/>
</g>
<path d="M0.669994 71.39H22.43C15.43 52.15 15.68 38.71 22.43 20.03L0.71999 19.98C7.11999 39.13 7.38999 52.54 0.669994 71.39Z" fill="url(#paint0_linear)"/>
<path d="M54.72 53.15L65.65 34.68C45.13 31.06 33.42 24.09 20.32 8.98001L9.43 27.41C29.47 31.6 41.44 38.02 54.72 53.15Z" fill="url(#paint1_linear)"/>
<path d="M11.58 27.62C5.21214 27.62 0.049984 22.5563 0.049984 16.31C0.049984 10.0637 5.21214 5 11.58 5C17.9478 5 23.11 10.0637 23.11 16.31C23.11 22.5563 17.9478 27.62 11.58 27.62Z" fill="#9BB7BE"/>
<path d="M65.69 56.94L54.88 38.41C41.4 54.01 29.38 60.41 9.49001 63.99L20.27 82.48C34.02 67.6 45.68 60.6 65.69 56.94Z" fill="url(#paint2_linear)"/>
<path d="M63.49 57.15C57.1221 57.15 51.96 52.0863 51.96 45.84C51.96 39.5937 57.1221 34.53 63.49 34.53C69.8578 34.53 75.02 39.5937 75.02 45.84C75.02 52.0863 69.8578 57.15 63.49 57.15Z" fill="#A186BD"/>
<path d="M11.53 86.45C5.16215 86.45 0 81.3863 0 75.14C0 68.8937 5.16215 63.83 11.53 63.83C17.8978 63.83 23.06 68.8937 23.06 75.14C23.06 81.3863 17.8978 86.45 11.53 86.45Z" fill="#683D91"/>
</g>
<defs>
<linearGradient id="paint0_linear" x1="6.29639" y1="29.1884" x2="9.7098" y2="69.7098" gradientUnits="userSpaceOnUse">
<stop offset="0.11" stop-color="#9BB7BE"/>
<stop offset="0.19" stop-color="#95A9B9"/>
<stop offset="0.52" stop-color="#7D6FA3"/>
<stop offset="0.77" stop-color="#6E4B96"/>
<stop offset="0.9" stop-color="#683D91"/>
</linearGradient>
<linearGradient id="paint1_linear" x1="12.7686" y1="45.3098" x2="57.5812" y2="30.8936" gradientUnits="userSpaceOnUse">
<stop stop-color="#9BB7BE"/>
<stop offset="0.35" stop-color="#9CB6BE"/>
<stop offset="0.6" stop-color="#9F98BD"/>
<stop offset="0.79" stop-color="#A186BD"/>
</linearGradient>
<linearGradient id="paint2_linear" x1="13.9441" y1="89.4809" x2="59.7974" y2="33.1013" gradientUnits="userSpaceOnUse">
<stop offset="0.29" stop-color="#683D91"/>
<stop offset="0.67" stop-color="#A186BD"/>
</linearGradient>
<clipPath id="clip0">
<rect width="290.5" height="92.99" fill="white"/>
</clipPath>
</defs>
</svg>