<?xml version="1.0" encoding="UTF-8" standalone="no"?>
<svg
   xmlns:dc="http://purl.org/dc/elements/1.1/"
   xmlns:cc="http://creativecommons.org/ns#"
   xmlns:rdf="http://www.w3.org/1999/02/22-rdf-syntax-ns#"
   xmlns:svg="http://www.w3.org/2000/svg"
   xmlns="http://www.w3.org/2000/svg"
   xmlns:sodipodi="http://sodipodi.sourceforge.net/DTD/sodipodi-0.dtd"
   xmlns:inkscape="http://www.inkscape.org/namespaces/inkscape"
   preserveAspectRatio="xMinYMin"
   viewBox="-5 0 90 90"
   version="1.1"
   id="svg14"
   sodipodi:docname="data-flo-icon-logo-white.svg"
   inkscape:version="0.92.2 5c3e80d, 2017-08-06">
  <metadata
     id="metadata20">
    <rdf:RDF>
      <cc:Work
         rdf:about="">
        <dc:format>image/svg+xml</dc:format>
        <dc:type
           rdf:resource="http://purl.org/dc/dcmitype/StillImage" />
      </cc:Work>
    </rdf:RDF>
  </metadata>
  <defs
     id="defs18" />
  <sodipodi:namedview
     pagecolor="#ffffff"
     bordercolor="#666666"
     borderopacity="1"
     objecttolerance="10"
     gridtolerance="10"
     guidetolerance="10"
     inkscape:pageopacity="0"
     inkscape:pageshadow="2"
     inkscape:window-width="983"
     inkscape:window-height="596"
     id="namedview16"
     showgrid="false"
     inkscape:zoom="2.6222222"
     inkscape:cx="45"
     inkscape:cy="45"
     inkscape:window-x="385"
     inkscape:window-y="133"
     inkscape:window-maximized="0"
     inkscape:current-layer="svg14" />
  <ellipse
     cx="-11.580003"
     cy="16.709999"
     rx="11.53"
     ry="11.31"
     id="ellipse2"
     transform="scale(-1,1)"
     style="fill:#ffffff" />
  <path
     d="m 54.720001,53.55 10.93,-18.47 c -20.52,-3.62 -32.23,-10.59 -45.33,-25.7 L 9.4300014,27.81 C 29.470001,32 41.440001,38.42 54.720001,53.55 Z"
     id="path4"
     inkscape:connector-curvature="0"
     style="fill:#ffffff" />
  <ellipse
     cx="-63.490002"
     cy="46.240002"
     rx="11.53"
     ry="11.31"
     id="ellipse6"
     transform="scale(-1,1)"
     style="fill:#ffffff" />
  <path
     d="m 65.690001,57.34 -10.81,-18.53 c -13.48,15.6 -25.5,22 -45.3899996,25.58 L 20.270001,82.88 c 13.75,-14.88 25.41,-21.88 45.42,-25.54 z"
     id="path8"
     inkscape:connector-curvature="0"
     style="fill:#ffffff" />
  <ellipse
     cx="-11.53"
     cy="75.540001"
     rx="11.53"
     ry="11.31"
     id="ellipse10"
     transform="scale(-1,1)"
     style="fill:#ffffff" />
  <path
     d="M 0.67000141,71.79 H 22.430001 c -7,-19.24 -6.75,-32.68 0,-51.36 L 0.72000141,20.38 c 6.39999999,19.15 6.66999999,32.56 -0.05,51.41 z"
     id="path12"
     inkscape:connector-curvature="0"
     style="fill:#ffffff" />
</svg>
