<?xml version="1.0" encoding="UTF-8" standalone="no"?>
<svg
   xmlns:dc="http://purl.org/dc/elements/1.1/"
   xmlns:cc="http://creativecommons.org/ns#"
   xmlns:rdf="http://www.w3.org/1999/02/22-rdf-syntax-ns#"
   xmlns:svg="http://www.w3.org/2000/svg"
   xmlns="http://www.w3.org/2000/svg"
   xmlns:sodipodi="http://sodipodi.sourceforge.net/DTD/sodipodi-0.dtd"
   xmlns:inkscape="http://www.inkscape.org/namespaces/inkscape"
   width="75.019997"
   height="81.449997"
   viewBox="0 0 75.019997 81.449997"
   version="1.1"
   id="svg62"
   sodipodi:docname="software-logos-dataflo.svg"
   style="fill:none"
   inkscape:version="0.92.2 5c3e80d, 2017-08-06">
  <metadata
     id="metadata66">
    <rdf:RDF>
      <cc:Work
         rdf:about="">
        <dc:format>image/svg+xml</dc:format>
        <dc:type
           rdf:resource="http://purl.org/dc/dcmitype/StillImage" />
        <dc:title></dc:title>
      </cc:Work>
    </rdf:RDF>
  </metadata>
  <sodipodi:namedview
     pagecolor="#ffffff"
     bordercolor="#666666"
     borderopacity="1"
     objecttolerance="10"
     gridtolerance="10"
     guidetolerance="10"
     inkscape:pageopacity="0"
     inkscape:pageshadow="2"
     inkscape:window-width="1133"
     inkscape:window-height="804"
     id="namedview64"
     showgrid="false"
     fit-margin-top="0"
     fit-margin-left="0"
     fit-margin-right="0"
     fit-margin-bottom="0"
     inkscape:zoom="0.98969072"
     inkscape:cx="145.5"
     inkscape:cy="39.95"
     inkscape:window-x="285"
     inkscape:window-y="0"
     inkscape:window-maximized="0"
     inkscape:current-layer="g30" />
  <g
     clip-path="url(#clip0)"
     id="g30"
     transform="translate(0,-5)">
    <path
       d="M 0.669994,71.39 H 22.43 c -7,-19.24 -6.75,-32.68 0,-51.36 L 0.71999,19.98 c 6.4,19.15 6.67,32.56 -0.049996,51.41 z"
       id="path18"
       inkscape:connector-curvature="0"
       style="fill:url(#paint0_linear)" />
    <path
       d="M 54.72,53.15 65.65,34.68 C 45.13,31.06 33.42,24.09 20.32,8.98001 L 9.43,27.41 c 20.04,4.19 32.01,10.61 45.29,25.74 z"
       id="path20"
       inkscape:connector-curvature="0"
       style="fill:url(#paint1_linear)" />
    <path
       d="M 11.58,27.62 C 5.21214,27.62 0.049984,22.5563 0.049984,16.31 0.049984,10.0637 5.21214,5 11.58,5 c 6.3678,0 11.53,5.0637 11.53,11.31 0,6.2463 -5.1622,11.31 -11.53,11.31 z"
       id="path22"
       inkscape:connector-curvature="0"
       style="fill:#9bb7be" />
    <path
       d="M 65.69,56.94 54.88,38.41 C 41.4,54.01 29.38,60.41 9.49001,63.99 L 20.27,82.48 C 34.02,67.6 45.68,60.6 65.69,56.94 Z"
       id="path24"
       inkscape:connector-curvature="0"
       style="fill:url(#paint2_linear)" />
    <path
       d="m 63.49,57.15 c -6.3679,0 -11.53,-5.0637 -11.53,-11.31 0,-6.2463 5.1621,-11.31 11.53,-11.31 6.3678,0 11.53,5.0637 11.53,11.31 0,6.2463 -5.1622,11.31 -11.53,11.31 z"
       id="path26"
       inkscape:connector-curvature="0"
       style="fill:#a186bd" />
    <path
       d="M 11.53,86.45 C 5.16215,86.45 0,81.3863 0,75.14 0,68.8937 5.16215,63.83 11.53,63.83 c 6.3678,0 11.53,5.0637 11.53,11.31 0,6.2463 -5.1622,11.31 -11.53,11.31 z"
       id="path28"
       inkscape:connector-curvature="0"
       style="fill:#683d91" />
  </g>
  <defs
     id="defs60">
    <linearGradient
       id="paint0_linear"
       x1="6.2963901"
       y1="29.1884"
       x2="9.7097998"
       y2="69.709801"
       gradientUnits="userSpaceOnUse">
      <stop
         offset="0.11"
         stop-color="#9BB7BE"
         id="stop32" />
      <stop
         offset="0.19"
         stop-color="#95A9B9"
         id="stop34" />
      <stop
         offset="0.52"
         stop-color="#7D6FA3"
         id="stop36" />
      <stop
         offset="0.77"
         stop-color="#6E4B96"
         id="stop38" />
      <stop
         offset="0.9"
         stop-color="#683D91"
         id="stop40" />
    </linearGradient>
    <linearGradient
       id="paint1_linear"
       x1="12.7686"
       y1="45.309799"
       x2="57.5812"
       y2="30.8936"
       gradientUnits="userSpaceOnUse">
      <stop
         stop-color="#9BB7BE"
         id="stop43" />
      <stop
         offset="0.35"
         stop-color="#9CB6BE"
         id="stop45" />
      <stop
         offset="0.6"
         stop-color="#9F98BD"
         id="stop47" />
      <stop
         offset="0.79"
         stop-color="#A186BD"
         id="stop49" />
    </linearGradient>
    <linearGradient
       id="paint2_linear"
       x1="13.9441"
       y1="89.480904"
       x2="59.797401"
       y2="33.101299"
       gradientUnits="userSpaceOnUse">
      <stop
         offset="0.29"
         stop-color="#683D91"
         id="stop52" />
      <stop
         offset="0.67"
         stop-color="#A186BD"
         id="stop54" />
    </linearGradient>
    <clipPath
       id="clip0">
      <rect
         width="290.5"
         height="92.989998"
         id="rect57"
         x="0"
         y="0"
         style="fill:#ffffff" />
    </clipPath>
  </defs>
</svg>
